{
    "asset" : {
        "generator" : "Khronos glTF Blender I/O v3.2.43",
        "version" : "2.0"
    },
    "scene" : 0,
    "scenes" : [
        {
            "name" : "Scene",
            "nodes" : [
                0,
                1
            ]
        }
    ],
    "nodes" : [
        {
            "mesh" : 0,
            "name" : "Cylinder"
        },
        {
            "mesh" : 1,
            "name" : "Sphere",
            "scale" : [
                0.21599018573760986,
                0.21599018573760986,
                0.21599018573760986
            ],
            "translation" : [
                -0.2255949079990387,
                1.5462719202041626,
                -0.26784583926200867
            ]
        }
    ],
    "materials" : [
        {
            "doubleSided" : true,
            "name" : "Material.002",
            "pbrMetallicRoughness" : {
                "baseColorTexture" : {
                    "index" : 0
                },
                "metallicFactor" : 0,
                "roughnessFactor" : 0.5
            }
        },
        {
            "doubleSided" : true,
            "name" : "Material.001",
            "pbrMetallicRoughness" : {
                "metallicFactor" : 0,
                "roughnessFactor" : 0.5
            }
        }
    ],
    "meshes" : [
        {
            "name" : "Cylinder",
            "primitives" : [
                {
                    "attributes" : {
                        "POSITION" : 0,
                        "NORMAL" : 1,
                        "TEXCOORD_0" : 2
                    },
                    "indices" : 3,
                    "material" : 0
                }
            ]
        },
        {
            "name" : "Sphere",
            "primitives" : [
                {
                    "attributes" : {
                        "POSITION" : 4,
                        "NORMAL" : 5,
                        "TEXCOORD_0" : 6
                    },
                    "indices" : 7,
                    "material" : 1
                }
            ]
        }
    ],
    "textures" : [
        {
            "sampler" : 0,
            "source" : 0
        }
    ],
    "images" : [
        {
            "bufferView" : 4,
            "mimeType" : "image/png",
            "name" : "SantaHat"
        }
    ],
    "accessors" : [
        {
            "bufferView" : 0,
            "componentType" : 5126,
            "count" : 421,
            "max" : [
                1,
                1.5532735586166382,
                1
            ],
            "min" : [
                -1,
                -0.1600000262260437,
                -1
            ],
            "type" : "VEC3"
        },
        {
            "bufferView" : 1,
            "componentType" : 5126,
            "count" : 421,
            "type" : "VEC3"
        },
        {
            "bufferView" : 2,
            "componentType" : 5126,
            "count" : 421,
            "type" : "VEC2"
        },
        {
            "bufferView" : 3,
            "componentType" : 5123,
            "count" : 1524,
            "type" : "SCALAR"
        },
        {
            "bufferView" : 5,
            "componentType" : 5126,
            "count" : 54,
            "max" : [
                0.9749279618263245,
                1,
                0.9009690880775452
            ],
            "min" : [
                -0.9749281406402588,
                -1,
                -1.000000238418579
            ],
            "type" : "VEC3"
        },
        {
            "bufferView" : 6,
            "componentType" : 5126,
            "count" : 54,
            "type" : "VEC3"
        },
        {
            "bufferView" : 7,
            "componentType" : 5126,
            "count" : 54,
            "type" : "VEC2"
        },
        {
            "bufferView" : 8,
            "componentType" : 5123,
            "count" : 210,
            "type" : "SCALAR"
        }
    ],
    "bufferViews" : [
        {
            "buffer" : 0,
            "byteLength" : 5052,
            "byteOffset" : 0
        },
        {
            "buffer" : 0,
            "byteLength" : 5052,
            "byteOffset" : 5052
        },
        {
            "buffer" : 0,
            "byteLength" : 3368,
            "byteOffset" : 10104
        },
        {
            "buffer" : 0,
            "byteLength" : 3048,
            "byteOffset" : 13472
        },
        {
            "buffer" : 0,
            "byteLength" : 7136,
            "byteOffset" : 16520
        },
        {
            "buffer" : 0,
            "byteLength" : 648,
            "byteOffset" : 23656
        },
        {
            "buffer" : 0,
            "byteLength" : 648,
            "byteOffset" : 24304
        },
        {
            "buffer" : 0,
            "byteLength" : 432,
            "byteOffset" : 24952
        },
        {
            "buffer" : 0,
            "byteLength" : 420,
            "byteOffset" : 25384
        }
    ],
    "samplers" : [
        {
            "magFilter" : 9729,
            "minFilter" : 9987
        }
    ],
    "buffers" : [
        {
            "byteLength" : 25804,
            "uri" : "data:application/octet-stream;base64,"
        }
    ]
}
